<svg width="36" height="102" viewBox="0 0 36 102" fill="none" xmlns="http://www.w3.org/2000/svg">
  <path d="M0.000988225 101.957H7.66766C16.7743 101.957 24.1743 94.6147 24.1743 85.6088V63.8864C24.1743 57.7856 29.1877 52.8205 35.3477 52.8205V47.5385C29.1877 47.5385 24.1743 42.5733 24.1743 36.4726V16.3744C24.1877 7.34205 16.7743 0 7.66766 0H0.000988225V5.28205H7.66766C13.8277 5.28205 18.841 10.2472 18.841 16.3479V36.4462C18.841 42.1772 21.841 47.2347 26.361 50.1531C21.841 53.0714 18.841 58.129 18.841 63.86V85.5824C18.841 91.6832 13.8277 96.6483 7.66766 96.6483H0.000988225V101.957Z" fill="url(#paint0_linear_247_18)"/>
  <defs>
    <linearGradient id="paint0_linear_247_18" x1="17.6743" y1="0" x2="17.6743" y2="101.957" gradientUnits="userSpaceOnUse">
      <stop stop-color="#55C5DD"/>
      <stop offset="0.328125" stop-color="#3E93A6"/>
      <stop offset="0.625" stop-color="#235662"/>
      <stop offset="1" stop-opacity="0.0666667"/>
    </linearGradient>
  </defs>
</svg>