<svg width="36" height="102" viewBox="0 0 36 102" fill="none" xmlns="http://www.w3.org/2000/svg">
  <path d="M35.3467 101.957H27.68C18.5733 101.957 11.1733 94.6147 11.1733 85.6088V63.8864C11.1733 57.7856 6.16 52.8205 0 52.8205V47.5385C6.16 47.5385 11.1733 42.5733 11.1733 36.4726V16.3744C11.16 7.34205 18.5733 0 27.68 0H35.3467V5.28205H27.68C21.52 5.28205 16.5067 10.2472 16.5067 16.3479V36.4462C16.5067 42.1772 13.5067 47.2347 8.98667 50.1531C13.5067 53.0714 16.5067 58.129 16.5067 63.86V85.5824C16.5067 91.6832 21.52 96.6483 27.68 96.6483H35.3467V101.957Z" fill="url(#paint0_linear_248_21)"/>
  <defs>
    <linearGradient id="paint0_linear_248_21" x1="17.6733" y1="0" x2="17.6733" y2="101.957" gradientUnits="userSpaceOnUse">
      <stop stop-color="#54DEA8"/>
      <stop offset="0.328125" stop-color="#3FA77E"/>
      <stop offset="0.625" stop-color="#256149"/>
      <stop offset="1" stop-opacity="0.0666667"/>
    </linearGradient>
  </defs>
</svg>