<svg width="36" height="103" viewBox="0 0 36 103" fill="none" xmlns="http://www.w3.org/2000/svg">
  <path d="M35.3584 101.957H27.6917C18.5851 101.957 11.1851 94.6147 11.1851 85.6088V63.8864C11.1851 57.7856 6.17172 52.8205 0.0117188 52.8205V47.5385C6.17172 47.5385 11.1851 42.5733 11.1851 36.4726V16.3744C11.1717 7.34205 18.5851 0 27.6917 0H35.3584V5.28205H27.6917C21.5317 5.28205 16.5184 10.2472 16.5184 16.3479V36.4462C16.5184 42.1772 13.5184 47.2347 8.99839 50.1531C13.5184 53.0714 16.5184 58.129 16.5184 63.86V85.5824C16.5184 91.6832 21.5317 96.6483 27.6917 96.6483H35.3584V101.957Z" fill="url(#paint0_linear_235_160)"/>
  <defs>
    <linearGradient id="paint0_linear_235_160" x1="17.6851" y1="0" x2="17.6851" y2="101.957" gradientUnits="userSpaceOnUse">
      <stop stop-color="#4A117A"/>
      <stop offset="0.328125" stop-color="#2F0C4D"/>
      <stop offset="0.625" stop-color="#150522"/>
      <stop offset="1" stop-color="#040106" stop-opacity="0.0666667"/>
    </linearGradient>
  </defs>
</svg>