<svg width="36" height="102" viewBox="0 0 36 102" fill="none" xmlns="http://www.w3.org/2000/svg">
  <path d="M-0.0009649 101.957H7.6657C16.7724 101.957 24.1724 94.6147 24.1724 85.6088V63.8864C24.1724 57.7856 29.1857 52.8205 35.3457 52.8205V47.5385C29.1857 47.5385 24.1724 42.5733 24.1724 36.4726V16.3744C24.1857 7.34205 16.7724 0 7.6657 0H-0.0009649V5.28205H7.6657C13.8257 5.28205 18.839 10.2472 18.839 16.3479V36.4462C18.839 42.1772 21.839 47.2347 26.359 50.1531C21.839 53.0714 18.839 58.129 18.839 63.86V85.5824C18.839 91.6832 13.8257 96.6483 7.6657 96.6483H-0.0009649V101.957Z" fill="url(#paint0_linear_247_13)"/>
  <defs>
    <linearGradient id="paint0_linear_247_13" x1="17.6724" y1="0" x2="17.6724" y2="101.957" gradientUnits="userSpaceOnUse">
      <stop stop-color="#E565C6"/>
      <stop offset="0.328125" stop-color="#AE4A96"/>
      <stop offset="0.625" stop-color="#682D5A"/>
      <stop offset="1" stop-color="#040106" stop-opacity="0.0666667"/>
    </linearGradient>
  </defs>
</svg>